<?xml version="1.0" encoding="UTF-8" standalone="no"?>
<!DOCTYPE svg PUBLIC "-//W3C//DTD SVG 1.0//EN" "http://www.w3.org/TR/2001/PR-SVG-20010719/DTD/svg10.dtd">
<svg width="45cm" height="23cm" viewBox="-158 -142 899 460" xmlns="http://www.w3.org/2000/svg" xmlns:xlink="http://www.w3.org/1999/xlink">
  <defs/>
  <g id="Background">
    <rect style="fill: #d07d7d; fill-opacity: 1; stroke-opacity: 1; stroke-width: 4; stroke: #000000" x="-155.933" y="-140" width="895" height="360" rx="0" ry="0"/>
    <rect style="fill: #00ff00; fill-opacity: 1; stroke-opacity: 1; stroke-width: 4; stroke: #000000" x="-135" y="-112" width="415" height="200" rx="0" ry="0"/>
    <g>
      <rect style="fill: #ffffff; fill-opacity: 1; stroke-opacity: 1; stroke-width: 4; stroke: #000000" x="-120" y="-100" width="95.3" height="18"/>
      <text font-size="11.2" style="fill: #000000; fill-opacity: 1; stroke: none;text-anchor:middle;font-family:sans-serif;font-style:normal;font-weight:700" x="-72.35" y="-86">Table</text>
      <rect style="fill: #ffffff; fill-opacity: 1; stroke-opacity: 1; stroke-width: 4; stroke: #000000" x="-120" y="-82" width="95.3" height="52"/>
      <polygon style="fill: #000000; fill-opacity: 1; stroke: none" fill-rule="evenodd" points="-116,-72 -114,-69 -112,-72 -114,-75 "/>
      <text font-size="12.8" style="fill: #000000; fill-opacity: 1; stroke: none;text-anchor:start;font-family:monospace;font-style:normal;font-weight:normal" x="-110" y="-66">AmpnadoDB</text>
      <line style="fill: none; stroke-opacity: 1; stroke-width: 1; stroke: #000000" x1="-110" y1="-64.4" x2="-30.7" y2="-64.4"/>
      <polygon style="fill: #000000; fill-opacity: 1; stroke: none" fill-rule="evenodd" points="-116,-56 -114,-53 -112,-56 -114,-59 "/>
      <text font-size="12.8" style="fill: #000000; fill-opacity: 1; stroke: none;text-anchor:start;font-family:monospace;font-style:normal;font-weight:normal" x="-110" y="-50">PicDB</text>
      <line style="fill: none; stroke-opacity: 1; stroke-width: 1; stroke: #000000" x1="-110" y1="-48.4" x2="-30.7" y2="-48.4"/>
      <polygon style="fill: #000000; fill-opacity: 1; stroke: none" fill-rule="evenodd" points="-116,-40 -114,-37 -112,-40 -114,-43 "/>
      <text font-size="12.8" style="fill: #000000; fill-opacity: 1; stroke: none;text-anchor:start;font-family:monospace;font-style:normal;font-weight:normal" x="-110" y="-34">TVShowDB</text>
      <line style="fill: none; stroke-opacity: 1; stroke-width: 1; stroke: #000000" x1="-110" y1="-32.4" x2="-30.7" y2="-32.4"/>
    </g>
    <g>
      <rect style="fill: #ffffff; fill-opacity: 1; stroke-opacity: 1; stroke-width: 2; stroke: #000000" x="0" y="0" width="110.6" height="70"/>
      <rect style="fill: #ffffff; fill-opacity: 1; stroke-opacity: 1; stroke-width: 2; stroke: #000000" x="-20" y="14" width="40" height="14"/>
      <rect style="fill: #ffffff; fill-opacity: 1; stroke-opacity: 1; stroke-width: 2; stroke: #000000" x="-20" y="42" width="40" height="14"/>
      <text font-size="12.8" style="fill: #000000; fill-opacity: 1; stroke: none;text-anchor:start;font-family:sans-serif;font-style:normal;font-weight:normal" x="28" y="25.9">
        <tspan x="28" y="25.9">MovieGoBS</tspan>
        <tspan x="28" y="41.9">DOCKER</tspan>
        <tspan x="28" y="57.9">CONTAINER</tspan>
      </text>
    </g>
    <g>
      <rect style="fill: #ffffff; fill-opacity: 1; stroke-opacity: 1; stroke-width: 2; stroke: #000000" x="120" y="-100" width="110.6" height="70"/>
      <rect style="fill: #ffffff; fill-opacity: 1; stroke-opacity: 1; stroke-width: 2; stroke: #000000" x="100" y="-86" width="40" height="14"/>
      <rect style="fill: #ffffff; fill-opacity: 1; stroke-opacity: 1; stroke-width: 2; stroke: #000000" x="100" y="-58" width="40" height="14"/>
      <text font-size="12.8" style="fill: #000000; fill-opacity: 1; stroke: none;text-anchor:start;font-family:sans-serif;font-style:normal;font-weight:normal" x="148" y="-74.1">
        <tspan x="148" y="-74.1">TVGoBS</tspan>
        <tspan x="148" y="-58.1">DOCKER</tspan>
        <tspan x="148" y="-42.1">CONTAINER</tspan>
      </text>
    </g>
    <g>
      <path style="fill: none; stroke-opacity: 1; stroke-width: 4; stroke: #000000" d="M 360 -39 C 260,-120 480,-140 555.693,-93.8271"/>
      <polygon style="fill: #ffffff; fill-opacity: 1; stroke-opacity: 1; stroke-width: 4; stroke: #000000" fill-rule="evenodd" points="565.041,-82.268 576.182,-81.3289 570.249,-90.805 "/>
      <polygon style="fill: #ffffff; fill-opacity: 1; stroke-opacity: 1; stroke-width: 4; stroke: #000000" fill-rule="evenodd" points="553.089,-89.5586 564.23,-88.6195 558.297,-98.0956 "/>
    </g>
    <g>
      <line style="fill: none; stroke-opacity: 1; stroke-width: 4; stroke: #000000" x1="-24.7" y1="-72" x2="71.9232" y2="-55.7282"/>
      <polygon style="fill: #ffffff; fill-opacity: 1; stroke-opacity: 1; stroke-width: 4; stroke: #000000" fill-rule="evenodd" points="84.8985,-48.4728 95.59,-51.7427 86.5591,-58.3339 "/>
      <polygon style="fill: #ffffff; fill-opacity: 1; stroke-opacity: 1; stroke-width: 4; stroke: #000000" fill-rule="evenodd" points="71.0929,-50.7977 81.7844,-54.0676 72.7535,-60.6588 "/>
    </g>
    <g>
      <rect style="fill: #ffffff; fill-opacity: 1; stroke-opacity: 1; stroke-width: 2; stroke: #000000" x="380" y="-60" width="113.6" height="70"/>
      <rect style="fill: #ffffff; fill-opacity: 1; stroke-opacity: 1; stroke-width: 2; stroke: #000000" x="360" y="-46" width="40" height="14"/>
      <rect style="fill: #ffffff; fill-opacity: 1; stroke-opacity: 1; stroke-width: 2; stroke: #000000" x="360" y="-18" width="40" height="14"/>
      <text font-size="12.8" style="fill: #000000; fill-opacity: 1; stroke: none;text-anchor:start;font-family:sans-serif;font-style:normal;font-weight:normal" x="408" y="-34.1">
        <tspan x="408" y="-34.1">OMXPLAYER</tspan>
        <tspan x="408" y="-18.1">SERVER</tspan>
      </text>
    </g>
    <g>
      <polygon style="fill: #ffffff; fill-opacity: 1; stroke-opacity: 1; stroke-width: 4; stroke: #000000" fill-rule="evenodd" points="-100,160 44.6,160 56.6,172 56.6,210 -100,210 "/>
      <polyline style="fill: none; stroke-opacity: 1; stroke-width: 2; stroke: #000000" points="44.6,160 44.6,172 56.6,172 "/>
      <text font-size="12.8" style="fill: #000000; fill-opacity: 1; stroke: none;text-anchor:start;font-family:monospace;font-style:normal;font-weight:normal" x="-92" y="185.9">
        <tspan x="-92" y="185.9">RASBIAN LINUX HOST</tspan>
        <tspan x="-92" y="201.9">RASPBERRY PI 3B+</tspan>
      </text>
    </g>
    <text font-size="12.8" style="fill: #000000; fill-opacity: 1; stroke: none;text-anchor:start;font-family:sans-serif;font-style:normal;font-weight:normal" x="-21.7" y="185">
      <tspan x="-21.7" y="185"></tspan>
    </text>
    <g>
      <rect style="fill: #ffffff; fill-opacity: 1; stroke-opacity: 1; stroke-width: 2; stroke: #000000" x="620" y="120" width="88.2" height="70"/>
      <rect style="fill: #ffffff; fill-opacity: 1; stroke-opacity: 1; stroke-width: 2; stroke: #000000" x="600" y="134" width="40" height="14"/>
      <rect style="fill: #ffffff; fill-opacity: 1; stroke-opacity: 1; stroke-width: 2; stroke: #000000" x="600" y="162" width="40" height="14"/>
      <text font-size="12.8" style="fill: #000000; fill-opacity: 1; stroke: none;text-anchor:start;font-family:sans-serif;font-style:normal;font-weight:normal" x="648" y="145.9">
        <tspan x="648" y="145.9">HDMI</tspan>
        <tspan x="648" y="161.9">OUTPUT</tspan>
      </text>
    </g>
    <g>
      <rect style="fill: #ffffff; fill-opacity: 1; stroke-opacity: 1; stroke-width: 2; stroke: #000000" x="600" y="-100" width="113.6" height="70"/>
      <rect style="fill: #ffffff; fill-opacity: 1; stroke-opacity: 1; stroke-width: 2; stroke: #000000" x="580" y="-86" width="40" height="14"/>
      <rect style="fill: #ffffff; fill-opacity: 1; stroke-opacity: 1; stroke-width: 2; stroke: #000000" x="580" y="-58" width="40" height="14"/>
      <text font-size="12.8" style="fill: #000000; fill-opacity: 1; stroke: none;text-anchor:start;font-family:sans-serif;font-style:normal;font-weight:normal" x="628" y="-74.1">
        <tspan x="628" y="-74.1">OMXPLAYER</tspan>
      </text>
    </g>
    <g>
      <rect style="fill: #ffffff; fill-opacity: 1; stroke-opacity: 1; stroke-width: 2; stroke: #000000" x="390" y="110" width="104.15" height="70"/>
      <rect style="fill: #ffffff; fill-opacity: 1; stroke-opacity: 1; stroke-width: 2; stroke: #000000" x="370" y="124" width="40" height="14"/>
      <rect style="fill: #ffffff; fill-opacity: 1; stroke-opacity: 1; stroke-width: 2; stroke: #000000" x="370" y="152" width="40" height="14"/>
      <text font-size="12.8" style="fill: #000000; fill-opacity: 1; stroke: none;text-anchor:start;font-family:sans-serif;font-style:normal;font-weight:normal" x="418" y="135.9">
        <tspan x="418" y="135.9">ETHERNET</tspan>
        <tspan x="418" y="151.9">WIRELESS</tspan>
      </text>
    </g>
    <g>
      <line style="fill: none; stroke-opacity: 1; stroke-width: 4; stroke: #000000" x1="-96.175" y1="-30" x2="-39.763" y2="28.504"/>
      <polygon style="fill: #ffffff; fill-opacity: 1; stroke-opacity: 1; stroke-width: 4; stroke: #000000" fill-rule="evenodd" points="-33.6447,42.0527 -23.1042,45.7807 -26.4461,35.1115 "/>
      <polygon style="fill: #ffffff; fill-opacity: 1; stroke-opacity: 1; stroke-width: 4; stroke: #000000" fill-rule="evenodd" points="-43.3623,31.9746 -32.8219,35.7026 -36.1637,25.0334 "/>
    </g>
    <g>
      <rect style="fill: #ffffff; fill-opacity: 1; stroke-opacity: 1; stroke-width: 4; stroke: #000000" x="180" y="20" width="74.3" height="52"/>
      <text font-size="12.8" style="fill: #000000; fill-opacity: 1; stroke: none;text-anchor:middle;font-family:sans-serif;font-style:normal;font-weight:normal" x="217.15" y="41.9">
        <tspan x="217.15" y="41.9">DOCKER</tspan>
        <tspan x="217.15" y="57.9">SERVICE</tspan>
      </text>
      <line style="fill: none; stroke-opacity: 1; stroke-width: 2; stroke: #000000" x1="190" y1="44.95" x2="244.3" y2="44.95"/>
      <line style="fill: none; stroke-opacity: 1; stroke-width: 2; stroke: #000000" x1="190.125" y1="60.95" x2="244.175" y2="60.95"/>
    </g>
    <g>
      <line style="fill: none; stroke-opacity: 1; stroke-width: 4; stroke: #000000" x1="175.3" y1="-30" x2="198.875" y2="-1.83348"/>
      <polygon style="fill: #ffffff; fill-opacity: 1; stroke-opacity: 1; stroke-width: 4; stroke: #000000" fill-rule="evenodd" points="204.027,12.1114 214.28,16.5706 211.695,5.69302 "/>
      <polygon style="fill: #ffffff; fill-opacity: 1; stroke-opacity: 1; stroke-width: 4; stroke: #000000" fill-rule="evenodd" points="195.041,1.37573 205.294,5.83489 202.71,-5.04269 "/>
    </g>
    <g>
      <line style="fill: none; stroke-opacity: 1; stroke-width: 4; stroke: #000000" x1="110.6" y1="70" x2="153.091" y2="55.3055"/>
      <polygon style="fill: #ffffff; fill-opacity: 1; stroke-opacity: 1; stroke-width: 4; stroke: #000000" fill-rule="evenodd" points="167.957,55.4553 175.773,47.4616 164.688,46.0045 "/>
      <polygon style="fill: #ffffff; fill-opacity: 1; stroke-opacity: 1; stroke-width: 4; stroke: #000000" fill-rule="evenodd" points="154.726,60.031 162.542,52.0372 151.457,50.5801 "/>
    </g>
    <g>
      <line style="fill: none; stroke-opacity: 1; stroke-width: 4; stroke: #000000" x1="100" y1="-79" x2="-24.7" y2="-100"/>
      <path style="fill: #000000; fill-opacity: 1; stroke-opacity: 1; stroke-width: 4; stroke: #000000" fill-rule="evenodd" d="M -24.7 -100 C -24.2848,-102.465 -21.4044,-104.515 -18.9391,-104.1 C -16.4738,-103.685 -14.4237,-100.805 -14.8389,-98.3393 C -15.254,-95.8741 -18.1345,-93.8239 -20.5998,-94.2391 C -23.065,-94.6543 -25.1152,-97.5347 -24.7,-100z"/>
    </g>
    <g>
      <line style="fill: none; stroke-opacity: 1; stroke-width: 4; stroke: #000000" x1="254.3" y1="20" x2="230.6" y2="-30"/>
      <path style="fill: #000000; fill-opacity: 1; stroke-opacity: 1; stroke-width: 4; stroke: #000000" fill-rule="evenodd" d="M 230.6 -30 C 232.859,-31.0708 236.189,-29.8825 237.26,-27.6235 C 238.331,-25.3644 237.142,-22.0345 234.883,-20.9637 C 232.624,-19.8929 229.294,-21.0812 228.223,-23.3403 C 227.153,-25.5993 228.341,-28.9292 230.6,-30z"/>
    </g>
    <g>
      <line style="fill: none; stroke-opacity: 1; stroke-width: 4; stroke: #000000" x1="180" y1="20" x2="100" y2="0"/>
      <path style="fill: #000000; fill-opacity: 1; stroke-opacity: 1; stroke-width: 4; stroke: #000000" fill-rule="evenodd" d="M 100 0 C 100.606,-2.42536 103.638,-4.24437 106.063,-3.63803 C 108.489,-3.0317 110.308,0 109.701,2.42536 C 109.095,4.85071 106.063,6.66973 103.638,6.06339 C 101.213,5.45705 99.3937,2.42536 100,0z"/>
    </g>
    <g>
      <line style="fill: none; stroke-opacity: 1; stroke-width: 4; stroke: #000000" x1="-20" y1="21" x2="-72.35" y2="-30"/>
      <path style="fill: #000000; fill-opacity: 1; stroke-opacity: 1; stroke-width: 4; stroke: #000000" fill-rule="evenodd" d="M -72.35 -30 C -70.6055,-31.7907 -67.0702,-31.8369 -65.2795,-30.0924 C -63.4888,-28.3478 -63.4427,-24.8126 -65.1872,-23.0219 C -66.9317,-21.2312 -70.4669,-21.185 -72.2576,-22.9295 C -74.0483,-24.6741 -74.0945,-28.2093 -72.35,-30z"/>
    </g>
    <g>
      <polyline style="fill: none; stroke-opacity: 1; stroke-width: 4; stroke: #000000" points="254.3,20 320,20 320,-11 331.528,-11 "/>
      <polygon style="fill: #ffffff; fill-opacity: 1; stroke-opacity: 1; stroke-width: 4; stroke: #000000" fill-rule="evenodd" points="345.528,-6 355.528,-11 345.528,-16 "/>
      <polygon style="fill: #ffffff; fill-opacity: 1; stroke-opacity: 1; stroke-width: 4; stroke: #000000" fill-rule="evenodd" points="331.528,-6 341.528,-11 331.528,-16 "/>
    </g>
    <g>
      <polyline style="fill: none; stroke-opacity: 1; stroke-width: 4; stroke: #000000" points="580,-51 520,-51 520,141 571.528,141 "/>
      <polygon style="fill: #ffffff; fill-opacity: 1; stroke-opacity: 1; stroke-width: 4; stroke: #000000" fill-rule="evenodd" points="585.528,146 595.528,141 585.528,136 "/>
      <polygon style="fill: #ffffff; fill-opacity: 1; stroke-opacity: 1; stroke-width: 4; stroke: #000000" fill-rule="evenodd" points="571.528,146 581.528,141 571.528,136 "/>
    </g>
    <g>
      <rect style="fill: #ed09db; fill-opacity: 1; stroke-opacity: 1; stroke-width: 2; stroke: #000000" x="-20" y="260" width="96.3" height="36" rx="20" ry="20"/>
      <text font-size="12.8" style="fill: #000000; fill-opacity: 1; stroke: none;text-anchor:middle;font-family:sans-serif;font-style:normal;font-weight:normal" x="28.15" y="281.9">
        <tspan x="28.15" y="281.9">TELEPHONE</tspan>
      </text>
    </g>
    <g>
      <rect style="fill: #ed09db; fill-opacity: 1; stroke-opacity: 1; stroke-width: 2; stroke: #000000" x="580" y="280" width="80" height="36" rx="20" ry="20"/>
      <text font-size="12.8" style="fill: #000000; fill-opacity: 1; stroke: none;text-anchor:middle;font-family:sans-serif;font-style:normal;font-weight:normal" x="620" y="301.9">
        <tspan x="620" y="301.9">TV</tspan>
      </text>
    </g>
    <g>
      <line style="fill: none; stroke-opacity: 1; stroke-width: 4; stroke: #000000" x1="140" y1="278" x2="104.772" y2="278"/>
      <polygon style="fill: #ffffff; fill-opacity: 1; stroke-opacity: 1; stroke-width: 4; stroke: #000000" fill-rule="evenodd" points="90.7721,273 80.7721,278 90.7721,283 "/>
      <polygon style="fill: #ffffff; fill-opacity: 1; stroke-opacity: 1; stroke-width: 4; stroke: #000000" fill-rule="evenodd" points="104.772,273 94.7721,278 104.772,283 "/>
    </g>
    <g>
      <rect style="fill: #ed09db; fill-opacity: 1; stroke-opacity: 1; stroke-width: 2; stroke: #000000" x="280" y="260" width="91.95" height="36" rx="20" ry="20"/>
      <text font-size="12.8" style="fill: #000000; fill-opacity: 1; stroke: none;text-anchor:middle;font-family:sans-serif;font-style:normal;font-weight:normal" x="325.975" y="281.9">
        <tspan x="325.975" y="281.9">COMPUTER</tspan>
      </text>
    </g>
    <g>
      <line style="fill: none; stroke-opacity: 1; stroke-width: 4; stroke: #000000" x1="220" y1="278" x2="251.528" y2="278"/>
      <polygon style="fill: #ffffff; fill-opacity: 1; stroke-opacity: 1; stroke-width: 4; stroke: #000000" fill-rule="evenodd" points="265.528,283 275.528,278 265.528,273 "/>
      <polygon style="fill: #ffffff; fill-opacity: 1; stroke-opacity: 1; stroke-width: 4; stroke: #000000" fill-rule="evenodd" points="251.528,283 261.528,278 251.528,273 "/>
    </g>
    <g>
      <polyline style="fill: none; stroke-opacity: 1; stroke-width: 4; stroke: #000000" points="600,169 520,169 520,298 551.528,298 "/>
      <polygon style="fill: #ffffff; fill-opacity: 1; stroke-opacity: 1; stroke-width: 4; stroke: #000000" fill-rule="evenodd" points="565.528,303 575.528,298 565.528,293 "/>
      <polygon style="fill: #ffffff; fill-opacity: 1; stroke-opacity: 1; stroke-width: 4; stroke: #000000" fill-rule="evenodd" points="551.528,303 561.528,298 551.528,293 "/>
    </g>
    <g>
      <polyline style="fill: none; stroke-opacity: 1; stroke-width: 4; stroke: #000000" points="254.3,46 310,46 310,131 341.528,131 "/>
      <polygon style="fill: #ffffff; fill-opacity: 1; stroke-opacity: 1; stroke-width: 4; stroke: #000000" fill-rule="evenodd" points="355.528,136 365.528,131 355.528,126 "/>
      <polygon style="fill: #ffffff; fill-opacity: 1; stroke-opacity: 1; stroke-width: 4; stroke: #000000" fill-rule="evenodd" points="341.528,136 351.528,131 341.528,126 "/>
    </g>
    <g>
      <polyline style="fill: none; stroke-opacity: 1; stroke-width: 4; stroke: #000000" points="370,159 320,159 320,72 282.772,72 "/>
      <polygon style="fill: #ffffff; fill-opacity: 1; stroke-opacity: 1; stroke-width: 4; stroke: #000000" fill-rule="evenodd" points="268.772,67 258.772,72 268.772,77 "/>
      <polygon style="fill: #ffffff; fill-opacity: 1; stroke-opacity: 1; stroke-width: 4; stroke: #000000" fill-rule="evenodd" points="282.772,67 272.772,72 282.772,77 "/>
    </g>
    <g>
      <polyline style="fill: none; stroke-opacity: 1; stroke-width: 4; stroke: #000000" points="370,159 180,159 180,231.528 "/>
      <polygon style="fill: #ffffff; fill-opacity: 1; stroke-opacity: 1; stroke-width: 4; stroke: #000000" fill-rule="evenodd" points="175,245.528 180,255.528 185,245.528 "/>
      <polygon style="fill: #ffffff; fill-opacity: 1; stroke-opacity: 1; stroke-width: 4; stroke: #000000" fill-rule="evenodd" points="175,231.528 180,241.528 185,231.528 "/>
    </g>
    <g>
      <rect style="fill: #ffffff; fill-opacity: 1; stroke-opacity: 1; stroke-width: 2; stroke: #000000" x="140" y="260" width="80" height="36" rx="20" ry="20"/>
      <text font-size="12.8" style="fill: #000000; fill-opacity: 1; stroke: none;text-anchor:middle;font-family:sans-serif;font-style:normal;font-weight:normal" x="180" y="281.9">
        <tspan x="180" y="281.9">ROUTER</tspan>
      </text>
    </g>
    <text font-size="12.8" style="fill: #000000; fill-opacity: 1; stroke: none;text-anchor:start;font-family:sans-serif;font-style:normal;font-weight:normal" x="72.5" y="-12">
      <tspan x="72.5" y="-12"></tspan>
    </text>
    <g>
      <rect style="fill: #ffffff; fill-opacity: 1; stroke-opacity: 1; stroke-width: 2; stroke: #000000" x="600" y="0" width="87.05" height="70"/>
      <rect style="fill: #ffffff; fill-opacity: 1; stroke-opacity: 1; stroke-width: 2; stroke: #000000" x="580" y="14" width="40" height="14"/>
      <rect style="fill: #ffffff; fill-opacity: 1; stroke-opacity: 1; stroke-width: 2; stroke: #000000" x="580" y="42" width="40" height="14"/>
      <text font-size="12.8" style="fill: #000000; fill-opacity: 1; stroke: none;text-anchor:start;font-family:sans-serif;font-style:normal;font-weight:normal" x="628" y="25.9">
        <tspan x="628" y="25.9">FILE</tspan>
        <tspan x="628" y="41.9">SYSTEM</tspan>
      </text>
    </g>
    <g>
      <polyline style="fill: none; stroke-opacity: 1; stroke-width: 4; stroke: #000000" points="580,21 540,21 540,-79 551.528,-79 "/>
      <polygon style="fill: #ffffff; fill-opacity: 1; stroke-opacity: 1; stroke-width: 4; stroke: #000000" fill-rule="evenodd" points="565.528,-74 575.528,-79 565.528,-84 "/>
      <polygon style="fill: #ffffff; fill-opacity: 1; stroke-opacity: 1; stroke-width: 4; stroke: #000000" fill-rule="evenodd" points="551.528,-74 561.528,-79 551.528,-84 "/>
    </g>
    <g>
      <line style="fill: none; stroke-opacity: 1; stroke-width: 4; stroke: #000000" x1="580" y1="49" x2="282.701" y2="69.9944"/>
      <polygon style="fill: #ffffff; fill-opacity: 1; stroke-opacity: 1; stroke-width: 4; stroke: #000000" fill-rule="evenodd" points="268.384,65.993 258.761,71.685 269.088,75.9681 "/>
      <polygon style="fill: #ffffff; fill-opacity: 1; stroke-opacity: 1; stroke-width: 4; stroke: #000000" fill-rule="evenodd" points="282.349,65.0068 272.726,70.6988 283.054,74.982 "/>
    </g>
  </g>
</svg>
